<?xml version="1.0" encoding="iso-8859-1"?>
<svg version="1.1" id="Capa_1" xmlns="http://www.w3.org/2000/svg" xmlns:xlink="http://www.w3.org/1999/xlink" stroke="currentColor" fill="currentColor" x="0px" y="0px"
	 viewBox="0 0 512 512" style="enable-background:new 0 0 512 512;" xml:space="preserve">
<g>
	<g>
		<path d="M490.49,21.51c-3.9-3.91-10.23-3.91-14.14,0c-3.9,3.9-3.9,10.23,0,14.14c3.91,3.9,10.24,3.9,14.14,0
			C494.4,31.74,494.4,25.41,490.49,21.51z"/>
	</g>
</g>
<g>
	<g>
		<path d="M490.491,304.348c-3.9-3.9-10.23-3.9-14.14,0c-3.9,3.91-3.9,10.24,0,14.14c3.91,3.91,10.24,3.91,14.14,0
			C494.401,314.588,494.401,308.258,490.491,304.348z"/>
	</g>
</g>
<g>
	<g>
		<path d="M207.653,21.51c-3.91-3.91-10.24-3.91-14.14,0c-3.91,3.9-3.91,10.23,0,14.14c3.9,3.9,10.23,3.9,14.14,0
			C211.553,31.74,211.553,25.41,207.653,21.51z"/>
	</g>
</g>
<g>
	<g>
		<path d="M382.622,143.517l-14.14-14.14c-11.696-11.695-30.727-11.695-42.423,0C315.35,140.089,19.509,435.931,8.793,446.646
			c-11.723,11.723-11.726,30.696,0,42.422l14.14,14.14c11.724,11.723,30.696,11.725,42.422,0L382.622,185.94
			C394.318,174.244,394.318,155.213,382.622,143.517z M51.213,489.065c-3.907,3.907-10.23,3.908-14.137,0l-14.14-14.14
			c-3.908-3.907-3.909-10.23-0.001-14.137l239.487-239.487l28.277,28.277L51.213,489.065z M368.482,171.798l-63.639,63.638
			l-28.277-28.277l63.638-63.64c1.949-1.949,4.509-2.924,7.069-2.924c2.56,0,5.12,0.975,7.069,2.924l14.14,14.14
			C372.379,161.557,372.379,167.9,368.482,171.798z"/>
	</g>
</g>
<g>
	<g>
		<path d="M242.002,159.999h-60c-5.523,0-10,4.477-10,10s4.477,10,10,10h60c5.523,0,10-4.477,10-10S247.525,159.999,242.002,159.999
			z"/>
	</g>
</g>
<g>
	<g>
		<path d="M502,159.999h-60c-5.523,0-10,4.477-10,10s4.477,10,10,10h60c5.523,0,10-4.477,10-10S507.523,159.999,502,159.999z"/>
	</g>
</g>
<g>
	<g>
		<path d="M342.002,259.998c-5.523,0-10,4.477-10,10v60c0,5.523,4.477,10,10,10c5.523,0,10-4.477,10-10v-60
			C352.002,264.475,347.525,259.998,342.002,259.998z"/>
	</g>
</g>
<g>
	<g>
		<path d="M342.002,0c-5.523,0-10,4.477-10,10v60c0,5.523,4.477,10,10,10c5.523,0,10-4.477,10-10V10
			C352.002,4.477,347.525,0,342.002,0z"/>
	</g>
</g>
<g>
	<g>
		<path d="M462.212,276.066l-42.43-42.43c-3.905-3.905-10.237-3.905-14.143,0c-3.905,3.905-3.905,10.237,0,14.143l42.431,42.43
			c1.953,1.953,4.512,2.929,7.071,2.929c2.559,0,5.119-0.976,7.071-2.929C466.117,286.304,466.117,279.972,462.212,276.066z"/>
	</g>
</g>
<g>
	<g>
		<path d="M278.364,92.217l-42.43-42.43c-3.905-3.905-10.237-3.905-14.143,0c-3.905,3.905-3.905,10.237,0,14.143l42.43,42.43
			c3.905,3.905,10.237,3.905,14.143,0C282.269,102.455,282.269,96.123,278.364,92.217z"/>
	</g>
</g>
<g>
	<g>
		<path d="M462.213,49.788c-3.905-3.905-10.237-3.905-14.143,0l-42.43,42.43c-3.905,3.905-3.905,10.237,0,14.143
			c3.905,3.905,10.237,3.906,14.143,0l42.43-42.43C466.118,60.026,466.118,53.694,462.213,49.788z"/>
	</g>
</g>
</svg>
